<svg width="420" height="420" viewBox="0 0 420 420" fill="none" xmlns="http://www.w3.org/2000/svg">
  <defs>
    <linearGradient id="dragonGradient" x1="60" y1="40" x2="360" y2="360" gradientUnits="userSpaceOnUse">
      <stop offset="0" stop-color="#2fb1ff"/>
      <stop offset="1" stop-color="#0b3b7a"/>
    </linearGradient>
    <linearGradient id="wingGradient" x1="80" y1="220" x2="320" y2="360" gradientUnits="userSpaceOnUse">
      <stop offset="0" stop-color="#1b2d55"/>
      <stop offset="1" stop-color="#0b1a34"/>
    </linearGradient>
  </defs>
  <path d="M290 80c-52-54-140-60-196-12-58 48-74 136-33 202 36 59 116 96 199 74 62-16 113-62 127-122 9-38 2-74-22-105-8 28-28 52-62 62 26-24 37-52 31-86-5-26-20-43-44-53z" fill="url(#dragonGradient)" stroke="#73c7ff" stroke-width="2"/>
  <path d="M120 248c42 54 126 84 190 57 30-13 57-36 72-67-38 27-82 36-130 23-58-16-97-50-132-113z" fill="url(#wingGradient)" opacity="0.8"/>
  <path d="M218 118l18-18 24 6-16 22-26-10z" fill="#0c2143"/>
  <circle cx="240" cy="138" r="6" fill="#e8f4ff"/>
  <path d="M165 146l20 12-18 10-22-8 20-14z" fill="#0c2143"/>
  <path d="M245 186c22 8 36 22 42 40" stroke="#7fd1ff" stroke-width="3" stroke-linecap="round"/>
  <path d="M178 198c-18 10-30 24-36 44" stroke="#7fd1ff" stroke-width="3" stroke-linecap="round"/>
</svg>
